<svg xmlns="http://www.w3.org/2000/svg" viewBox="0 0 64 64" fill="none">
  <path d="M32 4C16.536 4 4 16.536 4 32C4 47.464 16.536 60 32 60C47.464 60 60 47.464 60 32C60 16.536 47.464 4 32 4Z" fill="#1677FF" opacity="0.1"/>
  <path d="M13 20C13 18.8954 13.8954 18 15 18H49C50.1046 18 51 18.8954 51 20V44C51 45.1046 50.1046 46 49 46H15C13.8954 46 13 45.1046 13 44V20Z" fill="#1677FF" opacity="0.3"/>
  <path d="M16 24C16 22.8954 16.8954 22 18 22H46C47.1046 22 48 22.8954 48 24V40C48 41.1046 47.1046 42 46 42H18C16.8954 42 16 41.1046 16 40V24Z" fill="#1677FF"/>
  <path d="M19 28H28L24 36H19V28Z" fill="white"/>
  <path d="M31 28H45V30H31V28Z" fill="white"/>
  <path d="M31 32H40V34H31V32Z" fill="white"/>
  <path d="M31 36H36V38H31V36Z" fill="white"/>
</svg> 